<?xml version="1.0" standalone="no"?>
<!DOCTYPE svg PUBLIC "-//W3C//DTD SVG 20010904//EN"
 "http://www.w3.org/TR/2001/REC-SVG-20010904/DTD/svg10.dtd">
<svg version="1.0" xmlns="http://www.w3.org/2000/svg"
 width="256.000000pt" height="256.000000pt" viewBox="0 0 256.000000 256.000000"
 preserveAspectRatio="xMidYMid meet">

<g transform="translate(0.000000,256.000000) scale(0.100000,-0.100000)"
fill="#000000" stroke="none">
<path d="M1259 2218 c-13 -5 -37 -7 -54 -4 -22 4 -26 3 -15 -4 11 -7 7 -10
-17 -10 -18 0 -33 -4 -33 -10 0 -5 -9 -10 -21 -10 -16 0 -19 -4 -14 -20 4 -12
2 -19 -4 -18 -5 2 -16 -6 -24 -17 -8 -11 -23 -20 -34 -21 -10 0 -35 -1 -55 -2
-29 -2 -36 -5 -32 -17 7 -16 -11 -26 -50 -29 -13 0 -22 -5 -18 -10 3 -5 -2 -7
-11 -3 -10 4 -16 2 -14 -5 1 -7 -7 -14 -18 -16 -11 -2 -27 -13 -36 -24 -11
-12 -20 -15 -24 -8 -4 7 -11 5 -21 -4 -19 -20 -18 -25 9 -36 l22 -9 -22 0
c-13 -1 -23 4 -23 9 0 6 -11 10 -25 10 -14 0 -25 -4 -25 -10 0 -5 -7 -10 -16
-10 -9 0 -18 -9 -21 -20 -5 -20 -23 -28 -23 -10 0 6 -4 10 -10 10 -5 0 -10 -6
-10 -14 0 -10 -7 -12 -22 -8 -14 3 -19 2 -14 -6 5 -8 0 -12 -12 -12 -11 0 -23
-7 -26 -16 -3 -8 -10 -13 -16 -9 -13 8 -59 -18 -89 -50 -14 -16 -34 -25 -52
-25 -16 0 -29 -4 -29 -10 0 -5 -7 -10 -15 -10 -8 0 -15 -4 -15 -10 0 -5 -8
-10 -17 -10 -10 0 -31 -8 -47 -18 -21 -13 -29 -26 -31 -52 -2 -19 1 -41 7 -47
6 -7 66 -42 135 -79 69 -36 121 -70 116 -74 -4 -4 -57 -33 -118 -65 -214 -113
-215 -133 -9 -244 74 -40 134 -77 134 -82 0 -5 7 -9 15 -9 8 0 15 -7 15 -16 0
-12 -4 -14 -12 -6 -19 14 -70 8 -105 -13 -25 -15 -30 -22 -23 -36 12 -21 -10
-32 -46 -23 -18 5 -24 2 -24 -11 0 -13 -6 -16 -25 -13 -14 3 -25 1 -25 -3 0
-5 -6 -9 -14 -9 -7 0 -20 -8 -27 -17 -10 -11 -10 -14 -1 -9 8 5 12 0 12 -14 0
-14 -4 -19 -12 -14 -8 5 -7 0 2 -15 9 -14 157 -100 360 -210 190 -103 400
-218 467 -255 143 -78 206 -96 281 -78 52 12 947 487 990 525 12 11 22 30 22
42 0 35 -39 63 -207 150 -40 20 -73 40 -73 43 0 4 58 38 129 75 199 105 199
128 4 233 -68 36 -125 69 -128 73 -2 4 49 36 113 70 131 71 162 95 162 126 0
33 -31 55 -225 158 -99 52 -310 165 -470 251 -253 137 -295 156 -331 154 -23
-1 -52 -6 -65 -10z m-694 -1178 c3 -5 2 -10 -4 -10 -5 0 -13 5 -16 10 -3 6 -2
10 4 10 5 0 13 -4 16 -10z m42 -16 c-3 -3 -12 -4 -19 -1 -8 3 -5 6 6 6 11 1
17 -2 13 -5z"/>
</g>
</svg>
